<?xml version="1.0" encoding="UTF-8"?><svg data-name="Group 95" viewBox="0 0 35.606 34.03" xmlns="http://www.w3.org/2000/svg"><defs><style>.cls-1{fill:#232d67}</style></defs><g data-name="Group 94"><g data-name="Group 93"><path class="cls-1" transform="translate(-3.592 -5.697)" d="M24.245 36.586a3.008 3.008 0 0 1-.847.169 1.419 1.419 0 0 0-1.1 1.609v.085a1.311 1.311 0 0 0 1.609.931l1.016-.254a1.279 1.279 0 0 0 .931-1.693 1.207 1.207 0 0 0-1.609-.847z" data-name="Path 149"/><path class="cls-1" transform="translate(-1.713 -5.484)" d="M12.8 35.612c-.254-.085-.508-.254-.762-.339a1.39 1.39 0 0 0-1.863.593 1.416 1.416 0 0 0-.085 1.016 1.345 1.345 0 0 0 .677.847 4.538 4.538 0 0 0 .931.423 1.3 1.3 0 0 0 1.778-.677 1.37 1.37 0 0 0-.676-1.863z" data-name="Path 150"/><path class="cls-1" transform="translate(-2.643 -5.77)" d="M18.471 37.083c-.254 0-.593-.085-.847-.085a1.349 1.349 0 0 0-1.524 1.186 1.441 1.441 0 0 0 .085.593 1.38 1.38 0 0 0 1.1.931 4.122 4.122 0 0 0 1.016.085 1.292 1.292 0 0 0 1.439-1.27 1.4 1.4 0 0 0-1.269-1.44z" data-name="Path 151"/><path class="cls-1" transform="translate(-4.49 -5.285)" d="M29.545 34.058l-.762.508a1.49 1.49 0 0 0-.593 1.609.642.642 0 0 0 .169.339 1.4 1.4 0 0 0 1.863.508 3.041 3.041 0 0 0 .847-.593 1.442 1.442 0 0 0 .339-1.947 1.274 1.274 0 0 0-1.863-.424z" data-name="Path 152"/><path class="cls-1" transform="translate(-5.227 -4.621)" d="M35.7 29.753a1.39 1.39 0 0 0-1.947.339 4.7 4.7 0 0 1-.508.677 1.376 1.376 0 0 0-.254 1.27 1.843 1.843 0 0 0 .423.677 1.361 1.361 0 0 0 1.947-.169 7.4 7.4 0 0 0 .677-.847 1.442 1.442 0 0 0-.338-1.947z" data-name="Path 153"/><path class="cls-1" transform="translate(-5.715 -3.734)" d="M38.136 23.787a1.279 1.279 0 0 0-1.693.931c-.085.254-.169.593-.254.847a1.443 1.443 0 0 0 0 .847 1.331 1.331 0 0 0 .847.931 1.382 1.382 0 0 0 1.778-.847c.085-.339.254-.677.339-1.016a1.655 1.655 0 0 0-1.017-1.693z" data-name="Path 154"/><path class="cls-1" transform="translate(-.205 -.114)" d="M35.166 11.277l-1.778.593a16.837 16.837 0 0 0-8.128-9.736c-.423-.169-.762-.423-1.185-.593h-.085A17.175 17.175 0 0 0 12.731.695h-.085c-.085 0-.254.085-.339.085a1.57 1.57 0 0 1-.593.169h-.084a16.869 16.869 0 0 0-8.3 6.18c-.169.254-.423.593-.593.847v.084c-.169.339-.339.593-.508.931A16.391 16.391 0 0 0 .37 19.151a16.444 16.444 0 0 0 .593 2.794A17.374 17.374 0 0 0 4.6 28.379a1.378 1.378 0 0 0 2.032-1.863 15.1 15.1 0 0 1-2.117-3.048 3.007 3.007 0 0 1-.339-.762 10.722 10.722 0 0 1-.508-1.524 13.779 13.779 0 0 1 5-15.662c.085-.085.169-.085.254-.169a15.773 15.773 0 0 1 4.148-2.032 14.155 14.155 0 0 1 4.572-.593h.423a14.136 14.136 0 0 1 11.429 7.028c0 .085.085.085.085.169a24.7 24.7 0 0 1 1.185 2.625l-1.778.593c-.508.169-.593.508-.085.762l3.894 2.54a.857.857 0 0 0 1.185-.339l1.778-4.318c.17-.424-.084-.678-.592-.509z" data-name="Path 155"/><path class="cls-1" transform="translate(-1.708 -2.244)" d="M13.556 19.249a13.505 13.505 0 0 0-2.709 2.54A5.054 5.054 0 0 0 10 24.075h8.3v-2.286h-4.321c.254-.254.508-.423.677-.593s.593-.423 1.1-.847a8.287 8.287 0 0 0 1.944-1.777 3.332 3.332 0 0 0 .508-1.778 2.924 2.924 0 0 0-.423-1.524 3.748 3.748 0 0 0-1.27-1.016A8.52 8.52 0 0 0 14.233 14a5.217 5.217 0 0 0-2.2.339 2.815 2.815 0 0 0-1.185 1.016 4.372 4.372 0 0 0-.593 1.863l2.794.254a2.684 2.684 0 0 1 .423-1.185 1.228 1.228 0 0 1 1.693 0 1.034 1.034 0 0 1 .339.762 1.213 1.213 0 0 1-.339.847 7.522 7.522 0 0 1-1.609 1.353z" data-name="Path 156"/><path class="cls-1" transform="translate(-3.379 -2.244)" d="M28.266 24.159V22.3h1.27v-2.12h-1.27V14H25.9l-5 6.011V22.3h5v1.863zm-5.08-4.059l2.625-3.132V20.1z" data-name="Path 157"/></g></g></svg>